<svg xmlns="http://www.w3.org/2000/svg" width="254" height="295" viewBox="0 0 254 295">
  <g id="clock" transform="translate(-54 -39)">
    <g id="Group_1" data-name="Group 1" transform="translate(121 -14)">
      <rect id="Rectangle_3" data-name="Rectangle 3" width="43" height="26" transform="translate(38 53)" fill="#fff"/>
      <rect id="Rectangle_4" data-name="Rectangle 4" width="18" height="13" transform="translate(51 76)" fill="#fff"/>
    </g>
    <g id="Rectangle_5" data-name="Rectangle 5" transform="matrix(0.848, -0.53, 0.53, 0.848, 93.738, 83.111)" fill="#fff" stroke="#fff" stroke-width="1">
      <rect width="33" height="18" stroke="none"/>
      <rect x="0.5" y="0.5" width="32" height="17" fill="none"/>
    </g>
    <g id="Rectangle_6" data-name="Rectangle 6" transform="translate(179 106)" fill="#fff" stroke="#fff" stroke-width="1">
      <rect width="5" height="11" stroke="none"/>
      <rect x="0.5" y="0.5" width="4" height="10" fill="none"/>
    </g>
    <g id="Rectangle_7" data-name="Rectangle 7" transform="translate(181 302)" fill="#fff" stroke="#fff" stroke-width="1">
      <rect width="5" height="11" stroke="none"/>
      <rect x="0.5" y="0.5" width="4" height="10" fill="none"/>
    </g>
    <g id="Rectangle_8" data-name="Rectangle 8" transform="translate(284 208) rotate(90)" fill="#fff" stroke="#fff" stroke-width="1">
      <rect width="5" height="11" stroke="none"/>
      <rect x="0.5" y="0.5" width="4" height="10" fill="none"/>
    </g>
    <g id="Rectangle_9" data-name="Rectangle 9" transform="translate(86 208) rotate(90)" fill="#fff" stroke="#fff" stroke-width="1">
      <rect width="5" height="11" stroke="none"/>
      <rect x="0.5" y="0.5" width="4" height="10" fill="none"/>
    </g>
    <g id="Rectangle_10" data-name="Rectangle 10" transform="translate(236.503 121.542) rotate(34)" fill="#fff" stroke="#fff" stroke-width="1">
      <rect width="5" height="11" stroke="none"/>
      <rect x="0.5" y="0.5" width="4" height="10" fill="none"/>
    </g>
    <g id="Rectangle_11" data-name="Rectangle 11" transform="matrix(0.643, 0.766, -0.766, 0.643, 267.106, 155.05)" fill="#fff" stroke="#fff" stroke-width="1">
      <rect width="5" height="11" stroke="none"/>
      <rect x="0.5" y="0.5" width="4" height="10" fill="none"/>
    </g>
    <g id="Rectangle_12" data-name="Rectangle 12" transform="matrix(0.643, 0.766, -0.766, 0.643, 101.106, 256.05)" fill="#fff" stroke="#fff" stroke-width="1">
      <rect width="5" height="11" stroke="none"/>
      <rect x="0.5" y="0.5" width="4" height="10" fill="none"/>
    </g>
    <g id="Rectangle_13" data-name="Rectangle 13" transform="translate(131.503 288.542) rotate(34)" fill="#fff" stroke="#fff" stroke-width="1">
      <rect width="5" height="11" stroke="none"/>
      <rect x="0.5" y="0.5" width="4" height="10" fill="none"/>
    </g>
    <g id="Rectangle_14" data-name="Rectangle 14" transform="matrix(-0.454, 0.891, -0.891, -0.454, 271.536, 260.769)" fill="#fff" stroke="#fff" stroke-width="1">
      <rect width="5" height="11" stroke="none"/>
      <rect x="0.5" y="0.5" width="4" height="10" fill="none"/>
    </g>
    <g id="Rectangle_15" data-name="Rectangle 15" transform="matrix(-0.819, 0.574, -0.574, -0.819, 240.703, 295.571)" fill="#fff" stroke="#fff" stroke-width="1">
      <rect width="5" height="11" stroke="none"/>
      <rect x="0.5" y="0.5" width="4" height="10" fill="none"/>
    </g>
    <g id="Rectangle_16" data-name="Rectangle 16" transform="translate(104.227 162.423) rotate(133)" fill="#fff" stroke="#fff" stroke-width="1">
      <rect width="5" height="11" stroke="none"/>
      <rect x="0.5" y="0.5" width="4" height="10" fill="none"/>
    </g>
    <g id="Rectangle_17" data-name="Rectangle 17" transform="matrix(-0.819, 0.574, -0.574, -0.819, 136.703, 129.571)" fill="#fff" stroke="#fff" stroke-width="1">
      <rect width="5" height="11" stroke="none"/>
      <rect x="0.5" y="0.5" width="4" height="10" fill="none"/>
    </g>
    <g id="Ellipse_2" data-name="Ellipse 2" transform="translate(54 86)" fill="none" stroke="#fff" stroke-width="15">
      <ellipse cx="127" cy="124" rx="127" ry="124" stroke="none"/>
      <ellipse cx="127" cy="124" rx="119.5" ry="116.5" fill="none"/>
    </g>
  </g>
</svg>
